<?xml version="1.0" ?>
<svg id="Layer_1" style="enable-background:new 0 0 52 52;" version="1.1" viewBox="0 0 52 52" xml:space="preserve"
     xmlns="http://www.w3.org/2000/svg" xmlns:xlink="http://www.w3.org/1999/xlink"><g><g><path d="M41.2309341,8.5973225c1.193779,0.9469042,1.8693123,2.4134378,1.4388962,3.944005    c-0.5881348,2.0914249-2.8079529,2.2900057-4.4176064,1.228487c-0.8771286-0.5784397-2.5342751-2.0162439-2.202755-3.1540041    c0.288044-0.9885521,1.2635498-1.6399527,2.2066383-1.8894453c0.440155-0.1164427,2.084404-0.3993378,2.4272423,0.0834522    c0.9239159,1.3010769,3.0928726,0.0537577,2.1586761-1.2617979c-1.7769012-2.5022607-6.1762772-1.6055384-8.0260086,0.3906898    c-0.9418945,1.0164938-1.6114082,2.5494614-1.299057,3.9531527c0.2895355,1.3011503,1.7853851,2.6989155,2.775219,3.5166788    c2.3029213,1.9025936,5.9633102,2.2222157,7.89851-0.3805151c1.8836288-2.5333662,1.2359009-6.2726736-1.1919899-8.1984701    C41.7510567,5.8399286,39.9704437,7.597507,41.2309341,8.5973225L41.2309341,8.5973225z"/></g><g><path d="M46.6048241,9.4720526c3.0526924,7.3560019-8.7154121,10.9246168-13.6640739,12.8008413    c0.5125465,0.2910175,1.0250969,0.5820332,1.5376472,0.8730488c-0.5034561-2.8526249-2.3978691-4.8423653-2.6806641-7.8478947    c-0.1897182-2.0162935-0.2223358-4.8738365,0.2371979-6.8290567c0.9594498-4.082243,5.1447372-4.3479958,8.5694313-4.1757245    c4.1369438,0.2080984,5.2349739,3.3738751,7.0416298,6.3561311c0.8325424,1.3742819,2.9952965,0.119216,2.1586761-1.2617979    c-1.7946281-2.9624057-2.741394-6.1194282-6.3589783-7.2131891c-3.0568047-0.924212-8.1498413-0.6610935-10.9318962,1.0252984    c-2.8387699,1.7207732-3.0817509,4.8190145-3.1534042,7.8594723c-0.0459785,1.9509354-0.2550926,4.0238924,0.0819397,5.9548016    c0.4309673,2.4690723,2.1935081,4.3495884,2.62537,6.7965603c0.110054,0.6235733,0.9489441,1.0962486,1.5376472,0.8730488    c6.3477135-2.4066582,19.2255135-6.6824074,15.4101753-15.8761377    C48.4076462,7.3426747,45.9877319,7.9850631,46.6048241,9.4720526L46.6048241,9.4720526z"/></g><g><path d="M35.8267593,23.5869694c4.4346428,5.8207989,2.3220139,14.651926-2.4232025,19.5929775    c-4.8582878,5.0587921-15.1116619,5.2007065-21.2419395,2.5512047C4.3143034,42.33955,2.7486351,30.668787,6.5055308,23.760231    c4.7531171-8.7405043,14.0279789-10.024065,22.8082962-7.40802c1.5451317,0.4603634,2.2052822-1.9516602,0.6645985-2.4106979    c-10.025589-2.9870672-20.1223412-1.2042656-25.6315727,8.556921c-4.4688492,7.9178505-2.4408009,19.5987377,5.249486,24.675211    c3.5888548,2.3690529,9.2899971,2.6322632,13.4799156,2.5200157c4.2204399-0.1130676,8.4243546-1.254097,11.5491982-4.2246437    c5.9537125-5.6597366,8.6997147-16.1350479,3.3599815-23.1438465    C37.0231895,21.062151,34.8510056,22.3062191,35.8267593,23.5869694L35.8267593,23.5869694z"/></g><g><path d="M7.2220931,22.6443558c7.9583335,0,15.916666,0,23.875,0c1.6086292,0,1.6112957-2.5,0-2.5    c-7.958334,0-15.916667,0-23.875,0C5.6134624,20.1443558,5.6107984,22.6443558,7.2220931,22.6443558L7.2220931,22.6443558z"/></g><g><path d="M4.2255764,31.8566628c11.3281612-0.4379215,22.6600113-0.6381626,33.9965744-0.6007423    c1.6088448,0.0053101,1.6110497-2.4946823,0-2.5c-11.3365593-0.0374203-22.6684074,0.1628208-33.9965744,0.6007423    C2.6220214,29.4186516,2.6140003,31.9189625,4.2255764,31.8566628L4.2255764,31.8566628z"/></g><g><path d="M5.7216754,41.2523079c10.2080536-0.2377129,20.416153-0.2888336,30.6260757-0.1533737    c1.6092682,0.0213509,1.6100883-2.4786377,0-2.5c-10.2099228-0.1354599-20.4180222-0.0843391-30.6260757,0.1533737    C4.11553,38.789711,4.1096349,41.2898483,5.7216754,41.2523079L5.7216754,41.2523079z"/></g><g><path d="M20.1993351,14.7694006c0.0229244,11.4583712,0.0458508,22.9167404,0.0687752,34.3751106    c0.0032177,1.6084862,2.5032234,1.6114273,2.5,0c-0.0229244-11.4583702-0.0458508-22.9167404-0.0687752-34.3751106    C22.6961174,13.1609144,20.1961117,13.1579723,20.1993351,14.7694006L20.1993351,14.7694006z"/></g><g><path d="M22.4972801,15.5897245c6.051445,4.1762743,4.9177151,11.126441,4.8706665,17.6557541    c-0.0186901,2.5938721,0.3481579,6.1219673-0.9219952,8.48526c-0.8080597,1.5035019-2.1392498,2.6273766-2.9379425,4.1603928    c-0.7425003,1.4251595,1.4142265,2.6907005,2.1586761,1.2617989c1.3184967-2.5307312,3.3195305-4.1525078,3.9100819-7.0367393    c0.689106-3.3655815,0.3163586-7.2499542,0.2903214-10.6491451c-0.0542545-7.0835304,0.0644531-11.776207-6.1080112-16.0359993    C22.4317379,12.5150137,21.1803017,14.6808405,22.4972801,15.5897245L22.4972801,15.5897245z"/></g><g><path d="M17.8991375,14.0997677c-3.5992384,5.6891136-4.6981525,12.4740314-4.1637096,19.1431103    c0.4152222,5.1813736,1.4965315,12.6839867,6.279398,15.7224617c1.3620014,0.8652534,2.6175346-1.2974014,1.261797-2.1586761    c-4.5575676-2.8953476-5.2144279-12.1920395-5.1553402-16.9402523c0.0646248-5.1930923,1.1534157-10.1057301,3.936533-14.5048456    C20.9205055,13.9979591,18.7579975,12.742218,17.8991375,14.0997677L17.8991375,14.0997677z"/></g></g></svg>