<?xml version="1.0" ?><svg enable-background="new 0 0 52 52" id="Layer_1" version="1.1" viewBox="0 0 52 52" xml:space="preserve" xmlns="http://www.w3.org/2000/svg" xmlns:xlink="http://www.w3.org/1999/xlink"><g><g><path d="M10.9410114,6.84166c0.0001183,1.5956292,0.0002356,3.1912589,0.0003529,4.7868886    c0.0001049,1.4235325,0.3181114,3.317874-0.0152769,4.7054911c0.2910166-0.2910156,0.5820322-0.5820322,0.8730488-0.8730488    c-0.9934759,0.4063644-2.59935-1.0145845-3.0376844-1.765378c-0.4543209-0.7781782-0.4141741-1.7644825-0.1341534-2.5855207    c0.3351831-0.9827776,1.710659-3.3831635,2.8060274-3.2365451c1.5894308,0.21275,1.5737867-2.2893443,0-2.5    C8.9400215,5.0398111,7.5039415,7.6340823,6.5727801,9.5624027c-1.1025572,2.2832594-0.8032684,4.8663883,1.0593085,6.6261902    c1.1432457,1.080164,4.3371372,3.0241966,5.5786858,1.1086464c0.6588268-1.0164871,0.230793-2.9180365,0.2307081-4.073061    c-0.0001574-2.1275063-0.0003138-4.2550125-0.0004711-6.3825183C13.4408932,5.2330346,10.9408932,5.2303596,10.9410114,6.84166    L10.9410114,6.84166z"/></g><g><path d="M17.4983101,6.7683935c1.6178207,2.3926964,3.0165024,4.3958454,1.6416473,7.5168638    c-0.8947945,2.0312481-2.9549332,4.2604008-5.1020641,4.8363953c-4.5076847,1.2092419-9.5733156-0.7238388-10.0915308-5.7001944    c-0.4447689-4.271059,0.644783-7.5697279,5.1423407-8.6708689c3.6219311-0.8867607,5.9389439,0.7572846,9.1200523,1.9918771    c1.5007477,0.5824418,2.1508408-1.8338852,0.6645985-2.4106975c-2.9482584-1.1442235-4.7211275-2.6701858-8.0001116-2.3853402    C8.2070618,2.17804,5.4623947,3.0376015,3.3922775,4.7853036C1.5755166,6.319109,1.4577907,7.970789,1.4353558,10.2507391    c-0.0272065,2.7648535-0.4143096,5.7789392,1.4978241,8.0055227c3.2302732,3.7614899,9.9997025,5.0788155,14.2443829,2.1970406    c2.085762-1.4160538,4.2966938-4.3816872,4.9052334-6.8187132c0.7600193-3.0436583-0.7679672-5.6761084-2.4258099-8.1279936    C18.7607021,4.1810236,16.5938187,5.4306855,17.4983101,6.7683935L17.4983101,6.7683935z"/></g><g><path d="M20.7749977,9.0481091c6.5883751-0.0820818,13.1767502-0.1641636,19.7651253-0.2462454    c1.6137276-0.0201054,3.3492699-0.260911,4.9412804-0.0615616c1.2923851,0.1618299,6.3606796,0.9687529,1.2330856,4.1445236    c-2.1231499,1.314971-2.9173012-1.1787424-4.785305-1.2616673c-0.800251-0.0355253-1.1215897,0.316164-1.8070374,0.6996689    c-0.7092628,0.6282997-1.4185257,1.2566004-2.1277924,1.884901c-0.2482185-0.3150215-0.4964371-0.630044-0.7446556-0.9450655    c-0.5039597-0.2376699-1.0700874-1.0732307-1.7084923-1.2816401c-0.8863411-0.2893496-1.0241699-0.2515392-1.8981628,0.0212469    c-0.7707176,0.2405519-1.1913681,1.1734982-1.9183998,1.4228783c-1.7293034,0.5931721-2.9964848-0.7023764-4.3007927-1.5943031    c-0.4395657-0.3005877-1.1582222-0.188345-1.514782,0.1954546c-1.9238014,2.0707712-2.5226746,2.4017401-5.3021812,2.3988132    c-1.6087017-0.0016937-1.6112194,2.4983034,0,2.500001c1.1971378,0.0012608,2.8014336,0.2747936,3.9264107-0.2009773    c0.9430656-0.398838,1.6348648-1.8531027,2.5429916-1.9325027c2.232235-0.1951694,2.5373497,2.2396297,4.9731674,1.5634174    c1.1265945-0.3127556,1.053051-1.2171288,2.4377136-1.2433786c1.5091591-0.0286102,1.1665001,0.7419901,2.384861,1.0957098    c0.6684456,0.1940651,0.9476662,0.5416203,1.6619911,0.4724197c1.2164078-0.1178398,1.8568649-1.5336981,3.1614113-1.6753483    c1.7577362-0.1908579,2.609951,1.5618572,4.2444496,1.5695705c3.1263885,0.0147533,6.2652092-7.6912489,3.7729378-9.9103737    c-1.9755249-1.7590151-8.797039-0.3664675-11.1492119-0.3371625c-5.9295387,0.073874-11.8590736,0.1477475-17.7886124,0.2216215    C19.1674805,6.5681372,19.1630859,9.0681915,20.7749977,9.0481091L20.7749977,9.0481091z"/></g><g><path d="M11.7010031,37.3551102c0.4509125,0.6073227,1.0942011,1.8222237,0.5144615,2.5568428    c-0.416173,0.5273514-1.966507,0.6420212-2.4909649,0.2236595c-0.381319-0.3041801-0.4588013-2.0388718-0.2710381-2.5154114    c0.3049393-0.7739372,2.0712233-0.6462936,2.7252426-0.3544426c1.4567213,0.6500435,2.7298794-1.5035629,1.2617979-2.1586761    c-1.7290297-0.7715607-4.737011-0.9398727-5.9531641,0.8337746c-0.621582,0.9065208-0.5446062,1.9872742-0.5289817,3.037117    c0.0165052,1.1090584,0.139029,2.1488838,0.9900832,2.9469147c1.4349327,1.3455315,4.3610811,1.2123375,5.8043871-0.0390701    c1.6860609-1.4618797,1.3228111-4.1547585,0.1068535-5.7925072    C12.9112873,34.8159409,10.7403202,36.0611839,11.7010031,37.3551102L11.7010031,37.3551102z"/></g><g><path d="M10.7956181,29.9759464c9.2820663,0.0098,18.5641327,0.019598,27.8461971,0.029398    c1.3955727,0.0014725,6.9446869-0.8205166,7.9560585,0.0083981c1.4258614,1.1686268,0.9474144,4.6928692,0.9470329,6.2008762    c-0.0005417,2.1474533-0.0010834,4.2949066-0.0016251,6.4423599c-0.000946,3.7554855-1.5027924,4.1640205-5.0959587,4.6601868    c-4.3704376,0.6034927-9.2779427,0.0654716-13.6806641,0.0965424c-4.5602016,0.0321808-9.1204166,0.072628-13.680666,0.0965462    c-4.7527599,0.024929-9.9081736-0.6386299-10.9217091-6.2513695c-0.2598681-1.4390907-0.3262436-4.0357475,0.0044155-5.3795471    c0.7714348-3.1351166,3.4644189-4.3068962,5.8553581-6.0030499c1.3015928-0.9233608,0.0542259-3.0922756-1.2617979-2.1586761    c-1.7892179,1.2692871-5.3927422,2.9198456-6.6196222,4.8336391c-0.9091096,1.4181099-0.4741249,3.5555458-0.4754101,5.1212692    c-0.0040032,4.8770905-0.6166703,7.0539284,3.4226122,9.8145142c4.9032702,3.351059,10.1059856,2.5224457,15.8592949,2.481842    c7.4917927-0.0528679,14.9835854-0.1057396,22.4753799-0.1586075c4.040329-0.0285149,6.1778679-0.0523453,6.6180725-4.3922768    c0.3640976-3.5896301,0.001873-7.431282,0.0027847-11.0440483c0.0003929-1.5591621,0.527092-4.3436565-0.5298424-5.726265    c-0.7468987-0.9770393-1.8397598-0.9567184-2.9176559-1.1339359c-3.7335854-0.6138401-8.135025-0.0085869-11.9340858-0.012598    c-7.9560566-0.0084-15.9121132-0.016798-23.8681698-0.025198C9.1869154,27.4742489,9.1843977,29.9742451,10.7956181,29.9759464    L10.7956181,29.9759464z"/></g><g><path d="M8.4614086,12.5870848c5.3678551,6.0476046,4.0799866,18.5139694,1.1848631,25.507473    c-0.6147766,1.4850616,1.8030214,2.1325111,2.410697,0.6646004c3.3497801-8.0917797,4.3388386-20.9923077-1.8277931-27.9398422    C9.1589861,9.6136065,7.396172,11.3869534,8.4614086,12.5870848L8.4614086,12.5870848z"/></g><g><path d="M4.1244144,19.6751957C4.0136228,25.029892,3.2010131,31.9396629,7.0134997,36.2681046    c1.0655026,1.2096977,2.8279929-0.5640602,1.7677665-1.7677689c-3.173943-3.6034813-2.2492881-10.357584-2.1568518-14.82514    C6.6577134,18.0658207,4.1577091,18.0660286,4.1244144,19.6751957L4.1244144,19.6751957z"/></g><g><path d="M21.8579082,35.1749382c6.583334,0,13.166666,0,19.7499981,0c1.6086311,0,1.6112976-2.5,0-2.5    c-6.5833321,0-13.1666641,0-19.7499981,0C20.2492771,32.6749382,20.2466125,35.1749382,21.8579082,35.1749382    L21.8579082,35.1749382z"/></g><g><path d="M28.6079082,39.9249382c4.416666,0,8.833334,0,13.2499981,0c1.6086311,0,1.6112976-2.5,0-2.5    c-4.4166641,0-8.8333321,0-13.2499981,0C26.9992771,37.4249382,26.9966125,39.9249382,28.6079082,39.9249382    L28.6079082,39.9249382z"/></g><g><path d="M21.4834976,45.2017479c6.9199371-0.1340752,13.8335991-0.052269,20.748394,0.245491    c1.6086311,0.0692711,1.60532-2.4308701,0-2.5c-6.9148293-0.2977638-13.8284931-0.3795624-20.748394-0.245491    C19.876812,42.7328758,19.87146,45.2329826,21.4834976,45.2017479L21.4834976,45.2017479z"/></g></g></svg>