<?xml version="1.0" ?><svg enable-background="new 0 0 52 52" id="Layer_1" version="1.1" viewBox="0 0 52 52" xml:space="preserve" xmlns="http://www.w3.org/2000/svg" xmlns:xlink="http://www.w3.org/1999/xlink"><g><g><path d="M3.669723,23.5803795c9.7428226-0.0004253,19.4856472-0.0008507,29.2284698-0.0012779    c-0.4166679-0.416666-0.8333321-0.8333321-1.25-1.25c0.2271843,4.4694061,0.3965912,8.9404526,0.4694672,13.415184    c0.029026,1.7821922,0.2912636,3.9863243,0.0497093,5.7529373c-0.4273548,3.1254654-0.7878933,3.0797653-3.9466991,3.0811005    c-8.4750061,0.0035782-16.9500122,0.0071564-25.4250202,0.0107384c0.4166665,0.4166641,0.8333333,0.8333321,1.2499998,1.25    C4.9214563,38.12537,5.1757483,30.4240494,4.8106627,22.6692295c-0.0754113-1.6018181-2.5758436-1.6110001-2.5,0    c0.3650782,7.7546597,0.1108117,15.4559803-0.7650126,23.1698322c-0.0763452,0.6724129,0.6345767,1.2502594,1.2500001,1.25    c5.6500044-0.002388,11.3000088-0.0047722,16.9500141-0.0071602c2.8250027-0.001194,5.6500034-0.0023842,8.4750061-0.0035782    c1.3256779-0.0005608,4.2232189,0.609478,5.3870411-0.1290894c1.9025803-1.2073898,1.0629349-4.4806633,1.056427-6.4108734    c-0.0204849-6.0740814-0.2076035-12.1432419-0.5159454-18.209259c-0.0343018-0.6748352-0.5449028-1.2500305-1.25-1.25    c-9.7428226,0.0004272-19.4856472,0.0008526-29.2284698,0.0012779C2.0610955,21.0804501,2.0584249,23.5804501,3.669723,23.5803795    L3.669723,23.5803795z"/></g><g><path d="M45.9391403,31.4540234c1.9569283,1.7924671,2.8987617,3.8356609,1.0409355,6.1793499    c-1.7356415,2.1895523-5.415741,2.7168503-7.6770058,0.8614807c-2.0033875-1.6437836-2.2566223-4.8771782-0.9771881-7.0674801    c1.3418579-2.2971687,5.920826-2.2356014,7.2266426,0.1628132c0.7695618,1.4134636,2.928997,0.1530609,2.1586761-1.261797    c-0.9553146-1.7546444-2.5661278-2.6800137-4.5404816-2.9127846c-1.6836166-0.1984959-4.2385445-0.2855873-5.6509056,0.8692474    c-3.1734619,2.5948219-3.1530991,8.3709393-0.6571693,11.3233166c2.4616356,2.9118118,8.6110153,3.7116089,11.2765236,0.7006836    c3.2332001-3.6521912,3.0874214-7.3987083-0.4322586-10.6225967    C46.5223427,28.6012402,44.7496338,30.3644829,45.9391403,31.4540234L45.9391403,31.4540234z"/></g><g><path d="M18.8363914,35.5799637c5.5555553,0,11.1111107,0,16.6666679,0c1.6086273,0,1.6112938-2.5,0-2.5    c-5.5555573,0-11.1111126,0-16.6666679,0C17.2277603,33.0799637,17.2250957,35.5799637,18.8363914,35.5799637    L18.8363914,35.5799637z"/></g><g><path d="M24.3363914,34.9966278c0,0.5555573,0,1.1111145,0,1.6666679c0,1.6086311,2.5,1.6112976,2.5,0    c0-0.5555534,0-1.1111107,0-1.6666679C26.8363914,33.3880005,24.3363914,33.385334,24.3363914,34.9966278L24.3363914,34.9966278z"/></g><g><path d="M19.4385624,36.3057899c0.2577133,0.6735992,0.3556061,1.3038712,0.3041725,2.0232582    c-0.0482006,0.6741714,0.6090126,1.25,1.25,1.25c0.7166023,0,1.2016582-0.5738792,1.25-1.25    c0.0648651-0.9072647-0.0683842-1.83815-0.3934746-2.6878586c-0.2410908-0.6301537-0.8416576-1.0643196-1.5376492-0.8730507    C19.7084961,34.9338837,19.1960411,35.6718941,19.4385624,36.3057899L19.4385624,36.3057899z"/></g><g><path d="M8.3682299,21.8290443c-0.0808458-3.3265419-0.5793614-6.5020199,1.174366-9.5218172    c1.5057478-2.5927935,3.9451294-4.8722229,6.9916697-5.1181459c3.0805683-0.2486701,6.1556778,1.8306751,8.1682415,4.0726395    c2.5684338,2.8611946,2.1099682,7.0260983,2.0273933,10.5677452c-0.0375252,1.6093712,2.4624882,1.608799,2.5,0    c0.0956268-4.1014175,0.5685234-8.6865826-2.3333321-11.9500523c-2.8674335-3.2247581-6.0274372-5.2919912-10.3623028-5.1903324    c-4.1399078,0.0970864-5.8073959,2.2317352-8.3336201,5.3351231c-2.9760065,3.6559315-2.4440322,7.2121849-2.3324156,11.8048401    C5.9072609,23.4350414,8.4074078,23.4410782,8.3682299,21.8290443L8.3682299,21.8290443z"/></g></g></svg>